<svg xmlns="http://www.w3.org/2000/svg" xmlns:xlink="http://www.w3.org/1999/xlink" width="180" height="180" viewBox="0 0 180 180">
    <defs>
        <filter id="w7hn5c6yva" width="132%" height="130.8%" x="-16%" y="-15.4%" filterUnits="objectBoundingBox">
            <feOffset dy="2" in="SourceAlpha" result="shadowOffsetOuter1"/>
            <feGaussianBlur in="shadowOffsetOuter1" result="shadowBlurOuter1" stdDeviation="4"/>
            <feColorMatrix in="shadowBlurOuter1" result="shadowMatrixOuter1" values="0 0 0 0 0.701960784 0 0 0 0 0.764705882 0 0 0 0 0.909803922 0 0 0 1 0"/>
            <feMerge>
                <feMergeNode in="shadowMatrixOuter1"/>
                <feMergeNode in="SourceGraphic"/>
            </feMerge>
        </filter>
        <path id="x56nsi8khb" d="M0.159 0.549L100.412 0.549 100.412 42.46 0.159 42.46z"/>
    </defs>
    <g fill="none" fill-rule="evenodd">
        <g>
            <g transform="translate(-116 -835) translate(116 835)">
                <circle cx="90" cy="90" r="90" fill="#F5F8FF"/>
                <g filter="url(#w7hn5c6yva)" transform="translate(28 25)">
                    <path fill="#FFE3BF" d="M82.355 96.713L75.951 85.62l23.626-13.64c2.58-1.49 5.88-.606 7.37 1.974l1.01 1.75c1.49 2.58.604 5.88-1.976 7.368L82.355 96.713z"/>
                    <path fill="#FFECD9" d="M13.703 93.062l6.153-6.027c4.267-4.18 10.001-6.52 15.973-6.52h40.089c4.187 0 7.581 3.394 7.581 7.58 0 4.187-3.394 7.58-7.581 7.58H62.325l-36.598 10.196-12.024-12.81z"/>
                    <g transform="translate(24 73.083)">
                        <mask id="uh7568ls0c" fill="#fff">
                            <use xlink:href="#x56nsi8khb"/>
                        </mask>
                        <path fill="#FFECD9" d="M55.84 18.672L88.22 1.517C92.175-.579 97.08.838 99.309 4.72c2.272 3.96.924 9.011-3.02 11.31L59.032 36.987c-.893.502-1.901.767-2.926.767h-36.34l-5.751 4.705L.159 28.344l30.063-10.979 25.618 1.307z" mask="url(#uh7568ls0c)"/>
                    </g>
                    <path fill="#FFD3A4" d="M57.62 95.676c3.05-.242 6.1-.337 9.149-.43 3.049-.07 6.099-.078 9.149-.051h.031l.041.005c.651.081 1.403.066 2.093-.06.698-.123 1.386-.332 2.014-.674.632-.338 1.178-.817 1.673-1.357.487-.55.871-1.196 1.206-1.877-.166.742-.473 1.455-.886 2.118-.411.665-.993 1.227-1.649 1.678-.662.441-1.405.777-2.184.957-.788.171-1.562.256-2.409.167l.07.005c-3.05.027-6.1.019-9.149-.051-3.049-.093-6.099-.188-9.149-.43"/>
                    <path fill="#20B2FF" d="M40.176 118.29l-10.104 10.104c-.918.918-2.41.918-3.33 0L.69 102.34c-.92-.919-.92-2.409 0-3.328l10.103-10.104c.919-.919 2.409-.919 3.328 0l26.055 26.054c.919.92.919 2.41 0 3.33"/>
                    <path fill="#FFD3A4" d="M76.84 92.016h-4.843v-8.365h4.843c1.945 0 3.522 1.577 3.522 3.523v1.32c0 1.945-1.577 3.522-3.522 3.522"/>
                    <path fill="#DCDCDC" d="M68.239 65.937L68.239 30.302 61.273 12.485 54.308 30.302 54.308 65.937 61.346 75.09z"/>
                    <path fill="#C8C8C8" d="M61.359 13.528L61.681 13.528 61.273 12.485 54.308 30.302 54.308 65.937 61.346 75.09 61.359 75.073z"/>
                    <path fill="#404040" d="M65.978 5.294h-9.41c-.758 0-1.372-.614-1.372-1.372 0-.758.614-1.373 1.372-1.373h9.41c.76 0 1.373.615 1.373 1.373s-.614 1.372-1.373 1.372M77.332 23.94L76.086 7.087C75.791 3.092 72.464 0 68.457 0H54.088c-4.006 0-7.334 3.09-7.629 7.086L45.215 23.94c-.328 4.436 3.182 8.214 7.63 8.214h16.857c4.447 0 7.957-3.778 7.63-8.214"/>
                    <path fill="#C8C8C8" d="M68.239 36.402L68.239 39.539 65.232 37.839zM68.239 40.519L68.239 43.656 65.232 41.956zM68.239 50.06L68.239 53.197 65.232 51.497zM68.239 54.145L68.239 57.282 65.232 55.582zM68.239 58.229L68.239 61.366 65.232 59.666z"/>
                </g>
            </g>
        </g>
    </g>
</svg>
