<svg xmlns="http://www.w3.org/2000/svg" width="30.056" height="29.859" viewBox="0 0 30.056 29.859">
    <defs>
        <style>
            .cls-1{fill:#fff}
        </style>
    </defs>
    <g id="ic_logo_BI">
        <path id="패스_94" d="M159.5 67.836a.411.411 0 0 1 .411-.425l7.811-.049a.41.41 0 0 1 .417.417.311.311 0 0 1-.028.16l-3.847 9.561a.423.423 0 0 1-.383.259.458.458 0 0 1-.295-.119s-.011-.01-.011-.018a14.974 14.974 0 0 1-4.086-9.765c0-.007.008-.013.008-.013z" class="cls-1" transform="translate(-159.488 -52.492)"/>
        <path id="패스_95" d="M164.58 80.323l4.632-11.52.011-.016a2.28 2.28 0 0 1 4.169-.179l4.872 11.625v.007a.408.408 0 0 1 .031.158.413.413 0 0 1-.205.36l-.016.013a15.071 15.071 0 0 1-6.64 1.6 14.879 14.879 0 0 1-6.658-1.509.418.418 0 0 1-.227-.367.441.441 0 0 1 .026-.158z" class="cls-1" transform="translate(-156.303 -52.51)"/>
        <path id="패스_96" d="M172.654 67.913V67.9a.465.465 0 0 1-.034-.15.422.422 0 0 1 .417-.425l7.812-.055a.415.415 0 0 1 .416.412l.007.01a15 15 0 0 1-3.943 9.84l-.007.007a.464.464 0 0 1-.3.129.418.418 0 0 1-.385-.258l-3.979-9.5z" class="cls-1" transform="translate(-151.216 -52.551)"/>
        <path id="패스_97" d="M181.718 68.666l-9.147.064h-.036a.409.409 0 0 1-.349-.256l-.735-1.757a20.314 20.314 0 0 1-1.482-7.358l-.007-.7a.415.415 0 0 1 .414-.419H170.447a15.034 15.034 0 0 1 11.661 9.871h.007a.314.314 0 0 1 .021.13.415.415 0 0 1-.418.425z" class="cls-1" transform="translate(-152.889 -58.239)"/>
        <path id="패스_98" d="M170.609 66.754l-.707 1.768a.434.434 0 0 1-.3.254h-.037a.1.1 0 0 1-.036.008l-9.155.067a.428.428 0 0 1-.432-.419.473.473 0 0 1 .024-.129V68.3a15.056 15.056 0 0 1 11.53-10.032h.011a.192.192 0 0 1 .055-.007.42.42 0 0 1 .424.414l.007.706h-.007a20.27 20.27 0 0 1-1.377 7.373z" class="cls-1" transform="translate(-159.205 -58.226)"/>
    </g>
</svg>
