<svg xmlns="http://www.w3.org/2000/svg" width="199.51" height="29.859" viewBox="0 0 199.51 29.859">
    <defs>
        <style>
            .cls-1{fill:#fff}
        </style>
    </defs>
    <g id="ic_logo" transform="translate(29.976 -18.166)">
        <g id="ic_logo_BI" transform="translate(-29.976 18.166)">
            <path id="패스_94" d="M159.5 67.836a.411.411 0 0 1 .411-.425l7.811-.049a.41.41 0 0 1 .417.417.311.311 0 0 1-.028.16l-3.847 9.561a.423.423 0 0 1-.383.259.458.458 0 0 1-.295-.119s-.011-.01-.011-.018a14.974 14.974 0 0 1-4.086-9.765c0-.007.008-.013.008-.013z" class="cls-1" transform="translate(-159.488 -52.492)"/>
            <path id="패스_95" d="M164.58 80.323l4.632-11.52.011-.016a2.28 2.28 0 0 1 4.169-.179l4.872 11.625v.007a.408.408 0 0 1 .031.158.413.413 0 0 1-.205.36l-.016.013a15.071 15.071 0 0 1-6.64 1.6 14.879 14.879 0 0 1-6.658-1.509.418.418 0 0 1-.227-.367.441.441 0 0 1 .026-.158z" class="cls-1" transform="translate(-156.303 -52.51)"/>
            <path id="패스_96" d="M172.654 67.913V67.9a.465.465 0 0 1-.034-.15.422.422 0 0 1 .417-.425l7.812-.055a.415.415 0 0 1 .416.412l.007.01a15 15 0 0 1-3.943 9.84l-.007.007a.464.464 0 0 1-.3.129.418.418 0 0 1-.385-.258l-3.979-9.5z" class="cls-1" transform="translate(-151.216 -52.551)"/>
            <path id="패스_97" d="M181.718 68.666l-9.147.064h-.036a.409.409 0 0 1-.349-.256l-.735-1.757a20.314 20.314 0 0 1-1.482-7.358l-.007-.7a.415.415 0 0 1 .414-.419H170.447a15.034 15.034 0 0 1 11.661 9.871h.007a.314.314 0 0 1 .021.13.415.415 0 0 1-.418.425z" class="cls-1" transform="translate(-152.889 -58.239)"/>
            <path id="패스_98" d="M170.609 66.754l-.707 1.768a.434.434 0 0 1-.3.254h-.037a.1.1 0 0 1-.036.008l-9.155.067a.428.428 0 0 1-.432-.419.473.473 0 0 1 .024-.129V68.3a15.056 15.056 0 0 1 11.53-10.032h.011a.192.192 0 0 1 .055-.007.42.42 0 0 1 .424.414l.007.706h-.007a20.27 20.27 0 0 1-1.377 7.373z" class="cls-1" transform="translate(-159.205 -58.226)"/>
        </g>
        <g id="ic_logo_text" transform="translate(14.024 20.166)">
            <path id="패스_99" d="M247.793 68.444c-6.7 0-10.257 2.155-10.257 5.489 0 3.407 3.444 5.517 10.257 5.517s10.261-2.11 10.261-5.517c-.001-3.333-3.554-5.489-10.261-5.489zm0 8.282c-4.868 0-7.341-1.063-7.341-2.786 0-1.682 2.542-2.773 7.341-2.773s7.345 1.09 7.345 2.773c-.001 1.724-2.472 2.786-7.345 2.786z" class="cls-1" transform="translate(-136.239 -53.176)"/>
            <path id="패스_100" d="M236.764 63.566h7.015l-6.55 5.365a.461.461 0 0 0-.162.339.455.455 0 0 0 .456.45h3.2l.019-.013 7.019-5.742a.949.949 0 0 1 .452-.123.86.86 0 0 1 .441.117l7.025 5.748.013.013h3.2a.456.456 0 0 0 .46-.45.444.444 0 0 0-.164-.339l-6.543-5.365h7.013a.04.04 0 0 0 .041-.039V60.9a.039.039 0 0 0-.041-.039h-22.894c-.034 0-.047.02-.047.039v2.627a.041.041 0 0 0 .047.039z" class="cls-1" transform="translate(-136.944 -59.704)"/>
            <path id="패스_101" d="M262.745 66.31h-27.03s-.037.015-.037.041v2.627a.065.065 0 0 0 .019.037h24.738a2.719 2.719 0 0 0 2.754-2.134.241.241 0 0 0 .02-.11.464.464 0 0 0-.464-.461z" class="cls-1" transform="translate(-137.838 -55.013)"/>
            <path id="패스_102" d="M261.25 74.657v2.735a.079.079 0 0 0 .011.033l.028.013h6.671v2.093a.049.049 0 0 0 .045.041h2.977a.044.044 0 0 0 .039-.041v-18.94a.042.042 0 0 0-.039-.039H268c-.017 0-.045.017-.045.039V74.61h-6.666a.047.047 0 0 0-.039.047z" class="cls-1" transform="translate(-115.825 -59.97)"/>
            <path id="패스_103" d="M260.4 76.4a.043.043 0 0 0 .039.045h2.981s.039-.019.039-.045v-4.146h8.182s.02 0 .026-.013.009-.019.009-.028v-2.741a.1.1 0 0 0-.009-.037h-2.929v-5.473a2.825 2.825 0 0 0-1.014-2.233 3.481 3.481 0 0 0-2.3-.867h-11.135s-.037.02-.037.041v2.743a.057.057 0 0 0 .006.028l.019.011H265.4a.378.378 0 0 1 .24.084.288.288 0 0 1 .076.216v5.45H253.1s-.039.019-.039.037v2.741a.039.039 0 0 0 .013.028.02.02 0 0 0 .019.013h7.307z" class="cls-1" transform="translate(-122.878 -59.703)"/>
            <path id="패스_104" d="M195.084 74.212c6.546 0 10.614-2.687 10.614-7 0-4.239-4.161-6.971-10.614-6.971s-10.616 2.732-10.616 6.971c0 4.313 4.066 7 10.616 7zm0-10.964c4.418 0 7.633 1.664 7.633 3.962 0 2.35-3.137 3.988-7.633 3.988s-7.628-1.638-7.628-3.988c0-2.298 3.207-3.962 7.628-3.962z" class="cls-1" transform="translate(-181.92 -60.239)"/>
            <path id="패스_105" d="M218.556 66.721h-4.174v-6.13a.058.058 0 0 0-.02-.039h-2.994a.041.041 0 0 0-.047.039v17.641a.045.045 0 0 0 .047.045h2.972s.043-.02.043-.045V69.54h4.174a.041.041 0 0 0 .043-.037v-2.745a.041.041 0 0 0-.044-.037z" class="cls-1" transform="translate(-158.805 -59.97)"/>
            <path id="패스_106" d="M216.176 67.738c0-4.006-2.871-7.252-8.083-7.252s-8.085 3.245-8.085 7.252S202.884 75 208.092 75s8.084-3.247 8.084-7.262zm-13.13 0c0-2.5 1.792-4.529 5.046-4.529s5.056 2.026 5.056 4.529-1.8 4.537-5.056 4.537-5.046-2.027-5.046-4.537z" class="cls-1" transform="translate(-168.544 -60.026)"/>
            <path id="패스_107" d="M236.233 69.793h-4.057v-9.2a.042.042 0 0 0-.041-.039h-2.972a.043.043 0 0 0-.046.039v24.786a.045.045 0 0 0 .046.041h2.972a.046.046 0 0 0 .041-.041V72.61h4.04s.037-.02.037-.037V69.83a.043.043 0 0 0-.02-.037z" class="cls-1" transform="translate(-143.486 -59.97)"/>
            <path id="패스_108" d="M209.309 68.76h-26.173c-.043 0-.037.033-.037.033V71.5c0 .028.011.045.037.045h6.055v6.215c0 .037.03.037.03.037h2.979c.028 0 .046-.013.046-.037v-6.214h8.612v6.215a.038.038 0 0 0 .041.037h2.975s.045 0 .045-.037v-6.215h3.361a2.617 2.617 0 0 0 2.438-2.27v-.05a.443.443 0 0 0-.409-.466z" class="cls-1" transform="translate(-183.099 -52.904)"/>
            <path id="패스_109" d="M223.554 74.405h-18.279a.374.374 0 0 1-.24-.086.258.258 0 0 1-.078-.207v-4.55a.043.043 0 0 0-.037-.045h-2.977a.043.043 0 0 0-.035.045v3.967a3.754 3.754 0 0 0 3.8 3.7h15.652a2.75 2.75 0 0 0 2.646-2.3.2.2 0 0 0 .007-.071.455.455 0 0 0-.459-.453z" class="cls-1" transform="translate(-166.909 -52.251)"/>
            <path id="패스_110" d="M234.919 77.709h-12.834a.362.362 0 0 1-.24-.084.285.285 0 0 1-.078-.2v-5.4h11.582a.043.043 0 0 0 .047-.039v-2.673a.044.044 0 0 0-.047-.037h-11.582v-5.471h12.319s.039-.019.039-.037v-2.693a.04.04 0 0 0-.021-.037h-15.512v15.793a3.757 3.757 0 0 0 3.792 3.7h10.335a2.761 2.761 0 0 0 2.65-2.3.246.246 0 0 0 .006-.071.459.459 0 0 0-.456-.451z" class="cls-1" transform="translate(-152.546 -59.551)"/>
            <path id="패스_111" d="M276.439 74.405h-18.285a.362.362 0 0 1-.235-.086.267.267 0 0 1-.082-.207v-4.55a.045.045 0 0 0-.041-.045h-2.966s-.041.02-.041.045v3.967a3.755 3.755 0 0 0 3.794 3.7h15.655a2.756 2.756 0 0 0 2.65-2.3.194.194 0 0 0 .008-.071.457.457 0 0 0-.457-.453z" class="cls-1" transform="translate(-121.386 -52.251)"/>
        </g>
    </g>
</svg>
