<svg xmlns="http://www.w3.org/2000/svg" id="ic_logo" width="319.6" height="54.627" viewBox="0 0 319.6 54.627">
    <defs>
        <clipPath id="clip-path">
            <path id="사각형_16" fill="none" d="M0 0H319.6V54.627H0z"/>
        </clipPath>
        <style>
            .cls-3{fill:#fff}
        </style>
    </defs>
    <g id="그룹_20" clip-path="url(#clip-path)">
        <path id="패스_3" d="M.015 9.991a.754.754 0 0 1 .751-.778l14.289-.089a.752.752 0 0 1 .766.763.567.567 0 0 1-.054.292l-7.03 17.485a.767.767 0 0 1-.7.474.83.83 0 0 1-.537-.218c0-.009-.024-.018-.024-.033A27.424 27.424 0 0 1 0 10.024L.015 10z" class="cls-3" transform="translate(0 18.082)"/>
        <path id="패스_4" d="M5.12 32.855l8.474-21.073c.012-.009.012-.021.021-.033a4.172 4.172 0 0 1 7.628-.328l8.913 21.267v.012a.747.747 0 0 1 .06.289.771.771 0 0 1-.376.662l-.033.021A27.49 27.49 0 0 1 17.658 36.6a27.219 27.219 0 0 1-12.181-2.761h-.009a.773.773 0 0 1-.411-.674.747.747 0 0 1 .048-.289l.015-.021" class="cls-3" transform="translate(10.022 18.028)"/>
        <path id="패스_5" d="M13.195 10.21v-.024a.848.848 0 0 1-.063-.277.773.773 0 0 1 .763-.775l14.292-.1a.764.764 0 0 1 .763.757l.009.018a27.418 27.418 0 0 1-7.213 18l-.012.012a.848.848 0 0 1-.555.236.765.765 0 0 1-.707-.471z" class="cls-3" transform="translate(26.026 17.896)"/>
        <path id="패스_6" d="M31.981 19.075l-16.737.116h-.063a.753.753 0 0 1-.641-.468l-1.34-3.214a37.221 37.221 0 0 1-2.713-13.46L10.476.766A.756.756 0 0 1 11.23 0h.1l.027.006a27.508 27.508 0 0 1 21.337 18.058l.012.012a.608.608 0 0 1 .039.239.758.758 0 0 1-.763.76" class="cls-3" transform="translate(20.762 .001)"/>
        <path id="패스_7" d="M19.97 15.561L18.676 18.8a.794.794 0 0 1-.555.465h-.069a.189.189 0 0 1-.066.015l-16.748.12a.782.782 0 0 1-.787-.766.847.847 0 0 1 .042-.234v-.012A27.544 27.544 0 0 1 21.586.032h.021a.361.361 0 0 1 .1-.012.766.766 0 0 1 .775.757l.018 1.292h-.012a37.03 37.03 0 0 1-2.518 13.492" class="cls-3" transform="translate(.894 .041)"/>
        <path id="패스_8" d="M94.487 10.205c-10.747 0-16.439 3.456-16.439 8.8 0 5.46 5.519 8.841 16.439 8.841s16.442-3.382 16.442-8.846c0-5.343-5.7-8.8-16.442-8.8m0 13.275c-7.806 0-11.766-1.7-11.766-4.467 0-2.7 4.07-4.443 11.766-4.443s11.766 1.747 11.766 4.443c0 2.764-3.96 4.467-11.766 4.467" class="cls-3" transform="translate(154.679 20.226)"/>
        <path id="패스_9" d="M77.3 6.955h11.243l-10.5 8.6a.716.716 0 0 0 .474 1.264h5.12l.03-.021 11.25-9.2a1.53 1.53 0 0 1 .722-.194 1.375 1.375 0 0 1 .707.185l11.263 9.211.018.021h5.129a.732.732 0 0 0 .737-.725.7.7 0 0 0-.262-.54l-10.481-8.6h11.239a.061.061 0 0 0 .063-.063V2.685a.059.059 0 0 0-.063-.063H77.3c-.054 0-.072.03-.072.063v4.207c0 .03.018.063.072.063" class="cls-3" transform="translate(153.058 5.198)"/>
        <path id="패스_10" d="M119.562 8.072H76.248s-.057.024-.057.063v4.21a.1.1 0 0 0 .027.06h39.641a4.358 4.358 0 0 0 4.416-3.417.442.442 0 0 0 .03-.179.739.739 0 0 0-.742-.737" class="cls-3" transform="translate(150.999 15.999)"/>
        <path id="패스_11" d="M101.763 24.915V29.3a.1.1 0 0 0 .018.054l.045.021h10.69v3.358c0 .033.045.066.072.066h4.768a.073.073 0 0 0 .063-.066V2.376a.07.07 0 0 0-.063-.063h-4.768c-.027 0-.072.03-.072.063v22.468h-10.684a.07.07 0 0 0-.069.072" class="cls-3" transform="translate(201.678 4.585)"/>
        <path id="패스_12" d="M105.335 27.518a.072.072 0 0 0 .063.072h4.777s.063-.033.063-.072v-6.64h13.111s.03 0 .039-.021.018-.03.018-.042v-4.392a.138.138 0 0 0-.018-.063h-4.693V7.591a4.525 4.525 0 0 0-1.622-3.575 5.573 5.573 0 0 0-3.68-1.393h-17.85s-.06.036-.06.069v4.4a.06.06 0 0 0 .012.042l.027.018h17.826a.6.6 0 0 1 .385.137.468.468 0 0 1 .122.343v8.728h-20.22s-.066.03-.066.063v4.392a.067.067 0 0 0 .024.042.029.029 0 0 0 .027.021h11.716z" class="cls-3" transform="translate(185.439 5.2)"/>
        <path id="패스_13" d="M41.991 24.391C52.485 24.391 59 20.085 59 13.17 59 6.377 52.332 2 41.991 2S24.98 6.377 24.98 13.17c0 6.915 6.515 11.221 17.011 11.221m0-17.569c7.079 0 12.232 2.666 12.232 6.348 0 3.766-5.024 6.39-12.232 6.39s-12.223-2.624-12.223-6.39c0-3.683 5.138-6.348 12.223-6.348" class="cls-3" transform="translate(49.506 3.965)"/>
        <path id="패스_14" d="M63.426 12.2h-6.688V2.376a.1.1 0 0 0-.033-.063h-4.8a.068.068 0 0 0-.075.063v28.27a.069.069 0 0 0 .075.069h4.765s.069-.03.069-.069V16.715h6.688a.066.066 0 0 0 .069-.06v-4.4a.069.069 0 0 0-.069-.063" class="cls-3" transform="translate(102.725 4.585)"/>
        <path id="패스_15" d="M66.428 13.868c0-6.42-4.6-11.62-12.953-11.62s-12.956 5.2-12.956 11.62S45.129 25.5 53.475 25.5s12.953-5.2 12.953-11.632m-21.04 0c0-4.011 2.872-7.258 8.087-7.258s8.1 3.247 8.1 7.258-2.886 7.27-8.1 7.27-8.087-3.247-8.087-7.27" class="cls-3" transform="translate(80.302 4.457)"/>
        <path id="패스_16" d="M81.032 17.121h-6.5V2.376a.07.07 0 0 0-.066-.063H69.7a.07.07 0 0 0-.075.063V42.1a.07.07 0 0 0 .075.066h4.762a.07.07 0 0 0 .066-.066V21.638H81s.06-.033.06-.06v-4.4a.072.072 0 0 0-.033-.063" class="cls-3" transform="translate(137.994 4.585)"/>
        <path id="패스_17" d="M65.609 10.521h-41.94c-.066 0-.057.054-.057.054v4.342c0 .042.015.072.057.072h9.7v9.956c0 .06.048.06.048.06H38.2c.042 0 .075-.018.075-.06v-9.957h13.8v9.956a.061.061 0 0 0 .066.06H56.9s.072.006.072-.06v-9.956h5.388a4.2 4.2 0 0 0 3.906-3.641v-.081a.713.713 0 0 0-.662-.745" class="cls-3" transform="translate(46.795 20.852)"/>
        <path id="패스_18" d="M77.11 19.108H47.816a.576.576 0 0 1-.382-.137.419.419 0 0 1-.128-.328v-7.29a.065.065 0 0 0-.057-.072h-4.77a.069.069 0 0 0-.06.072v6.357a6.017 6.017 0 0 0 6.089 5.925h25.086a4.4 4.4 0 0 0 4.237-3.683.306.306 0 0 0 .012-.113.727.727 0 0 0-.734-.731" class="cls-3" transform="translate(84.068 22.359)"/>
        <path id="패스_19" d="M85.265 29.513H64.7a.569.569 0 0 1-.382-.134.457.457 0 0 1-.125-.328v-8.659h18.558a.067.067 0 0 0 .072-.063v-4.27a.069.069 0 0 0-.072-.06H64.192V7.233l19.74-.006s.063-.03.063-.06V2.859a.064.064 0 0 0-.036-.06H59.105v25.307a6.017 6.017 0 0 0 6.074 5.937H81.74a4.431 4.431 0 0 0 4.249-3.683.581.581 0 0 0 .011-.113.736.736 0 0 0-.731-.734" class="cls-3" transform="translate(117.137 5.549)"/>
        <path id="패스_20" d="M129.993 19.108h-29.3a.563.563 0 0 1-.376-.137.421.421 0 0 1-.131-.328v-7.29a.068.068 0 0 0-.066-.072h-4.75s-.069.03-.069.072v6.357a6.018 6.018 0 0 0 6.08 5.925h25.086a4.423 4.423 0 0 0 4.249-3.683.4.4 0 0 0 .009-.113.732.732 0 0 0-.734-.731" class="cls-3" transform="translate(188.874 22.359)"/>
    </g>
</svg>
