<?xml version="1.0" encoding="UTF-8"?>
<svg width="448px" height="512px" viewBox="0 0 448 512" version="1.1" xmlns="http://www.w3.org/2000/svg" xmlns:xlink="http://www.w3.org/1999/xlink">
    <title>Shape</title>
    <g id="Page-1" stroke="none" stroke-width="1" fill="none" fill-rule="evenodd">
        <g id="icon-calendar" fill="#888888" fill-rule="nonzero">
            <path d="M148,288 L108,288 C101.4,288 96,282.6 96,276 L96,236 C96,229.4 101.4,224 108,224 L148,224 C154.6,224 160,229.4 160,236 L160,276 C160,282.6 154.6,288 148,288 Z M256,276 L256,236 C256,229.4 250.6,224 244,224 L204,224 C197.4,224 192,229.4 192,236 L192,276 C192,282.6 197.4,288 204,288 L244,288 C250.6,288 256,282.6 256,276 Z M352,276 L352,236 C352,229.4 346.6,224 340,224 L300,224 C293.4,224 288,229.4 288,236 L288,276 C288,282.6 293.4,288 300,288 L340,288 C346.6,288 352,282.6 352,276 Z M256,372 L256,332 C256,325.4 250.6,320 244,320 L204,320 C197.4,320 192,325.4 192,332 L192,372 C192,378.6 197.4,384 204,384 L244,384 C250.6,384 256,378.6 256,372 Z M160,372 L160,332 C160,325.4 154.6,320 148,320 L108,320 C101.4,320 96,325.4 96,332 L96,372 C96,378.6 101.4,384 108,384 L148,384 C154.6,384 160,378.6 160,372 Z M352,372 L352,332 C352,325.4 346.6,320 340,320 L300,320 C293.4,320 288,325.4 288,332 L288,372 C288,378.6 293.4,384 300,384 L340,384 C346.6,384 352,378.6 352,372 Z M448,112 L448,464 C448,490.5 426.5,512 400,512 L48,512 C21.5,512 0,490.5 0,464 L0,112 C0,85.5 21.5,64 48,64 L96,64 L96,12 C96,5.4 101.4,0 108,0 L148,0 C154.6,0 160,5.4 160,12 L160,64 L288,64 L288,12 C288,5.4 293.4,0 300,0 L340,0 C346.6,0 352,5.4 352,12 L352,64 L400,64 C426.5,64 448,85.5 448,112 Z M400,458 L400,160 L48,160 L48,458 C48,461.3 50.7,464 54,464 L394,464 C397.3,464 400,461.3 400,458 Z" id="Shape"></path>
        </g>
    </g>
</svg>